<svg width="10" height="10" viewBox="0 0 10 10" fill="none" xmlns="http://www.w3.org/2000/svg">
<path d="M9.77534 8.68862L6.0845 4.99012L9.75533 1.31182C10.0547 1.0117 10.0547 0.52518 9.75533 0.225217C9.45581 -0.0747467 8.97044 -0.0747467 8.67093 0.225217L5.00009 3.90351L1.32942 0.225217C1.02991 -0.0747467 0.54454 -0.0747467 0.245021 0.225217C-0.0544981 0.525345 -0.0544981 1.01186 0.245021 1.31182L3.91569 4.99012L0.224517 8.68862C-0.0750019 8.98875 -0.0750019 9.4751 0.224517 9.77523C0.374277 9.92529 0.570457 10.0002 0.766801 10.0002C0.963145 10.0002 1.15933 9.92529 1.30909 9.77523L5.00009 6.07672L8.69094 9.77523C8.8407 9.92529 9.03688 10.0002 9.23322 10.0002C9.42957 10.0002 9.62575 9.92529 9.77551 9.77523C10.0747 9.47527 10.0747 8.98875 9.77534 8.68862Z" fill="#FF0000"/>
</svg>
